<svg xmlns="http://www.w3.org/2000/svg" viewBox="0 0 800 692.0" role="img" aria-label="Silhouette of Rwanda">
  <!-- Rwanda outline derived from Natural Earth 1:50m (public domain). -->
  <path d="M285.0 128.8 L298.0 128.5 L383.5 108.0 L392.0 114.4 L405.8 154.1 L413.0 159.9 L425.0 161.3 L448.9 152.2 L492.9 121.1 L512.1 102.3 L534.7 75.8 L563.6 45.9 L579.7 19.8 L595.4 4.6 L616.0 0.0 L638.9 1.2 L654.7 1.7 L641.7 7.9 L639.0 27.0 L654.0 57.5 L703.1 120.7 L734.3 132.3 L754.7 156.8 L774.7 198.2 L780.6 250.0 L772.3 312.3 L777.2 358.6 L795.3 388.9 L800.0 428.3 L791.4 476.7 L781.0 505.7 L768.7 515.3 L754.8 518.8 L735.9 515.6 L712.9 519.7 L687.8 528.8 L672.0 530.1 L662.2 528.3 L643.7 520.6 L614.5 495.6 L560.0 509.4 L545.3 509.1 L525.3 521.0 L509.0 535.6 L499.1 536.6 L489.1 534.6 L442.1 505.1 L425.0 506.1 L418.0 589.0 L410.1 635.0 L400.4 655.5 L366.8 675.3 L333.0 686.5 L314.5 685.8 L240.1 692.0 L211.0 692.0 L195.0 685.3 L174.1 638.3 L134.7 617.4 L96.9 607.6 L81.5 610.4 L67.8 634.9 L62.1 657.0 L25.4 641.9 L14.4 623.2 L13.4 591.7 L0.0 548.6 L7.4 530.2 L21.8 518.3 L52.3 495.5 L98.6 463.9 L108.5 448.8 L115.1 423.7 L112.1 365.3 L107.7 316.1 L113.2 298.5 L134.3 260.4 L162.7 221.4 L195.8 180.2 L215.7 176.2 L241.8 160.6 L269.5 137.4 L285.0 128.8 Z" fill="currentColor"/>
</svg>
