<svg xmlns="http://www.w3.org/2000/svg" width="24" height="24" viewBox="0 0 24 24" fill="none" stroke="currentColor" stroke-width="2" stroke-linecap="round" stroke-linejoin="round" class="lucide lucide-brain-circuit">
  <title>Machine Learning Prediction</title>
  <path d="M12 5a3 3 0 1 0-5.9.8A4 4 0 0 0 6.5 13H8"/>
  <path d="M12 5a3 3 0 1 1 5.9.8 4 4 0 0 1-.4 7.2H16"/>
  <path d="M12 5v14"/>
  <path d="M8 13a3 3 0 1 0 4 2.8"/>
  <path d="M16 13a3 3 0 1 1-4 2.8"/>
  <path d="M8 9h2"/>
  <path d="M14 9h2"/>
  <path d="M8 15h2"/>
  <path d="M14 15h2"/>
  <circle cx="8" cy="9" r="1"/>
  <circle cx="16" cy="9" r="1"/>
  <circle cx="8" cy="15" r="1"/>
  <circle cx="16" cy="15" r="1"/>
</svg>
